<?xml version="1.0" encoding="iso-8859-1"?>
<!-- Uploaded to: SVG Repo, www.svgrepo.com, Generator: SVG Repo Mixer Tools -->
<svg fill="#808080" height="800px" width="800px" version="1.1" id="Layer_1" xmlns="http://www.w3.org/2000/svg" xmlns:xlink="http://www.w3.org/1999/xlink"
	 viewBox="0 0 502.4 502.4" xml:space="preserve">
<g>
	<g>
		<path d="M481.066,103.467h-179.2l54.4-54.4c8.533-8.533,8.533-21.333,0-29.867s-21.333-8.533-29.867,0l-75.733,75.733
			L174.933,19.2c-8.533-8.533-21.333-8.533-29.867,0s-8.533,21.333,0,29.867l54.4,54.4H21.333C9.6,103.467,0,113.067,0,124.8
			v343.467C0,480,9.6,489.6,21.333,489.6H480c11.733,0,21.333-9.6,22.4-21.333V124.8C502.4,113.067,492.8,103.467,481.066,103.467z
			 M459.733,446.933H41.6V145.067h418.133V446.933z"/>
	</g>
</g>
<g>
	<g>
		<path d="M313.6,297.6c-1.067-7.467-5.333-12.8-11.733-16l-33.067-16l35.2-35.2c8.533-8.533,8.533-21.333,0-29.867
			s-21.333-8.533-29.867,0L218.666,256c-4.266,4.266-6.4,11.733-5.333,18.133c1.067,6.4,5.333,11.733,11.733,14.933l32,16
			L195.2,363.733c-8.533,8.533-8.533,21.333-1.067,29.867c4.267,4.267,9.6,6.4,14.933,6.4c5.333,0,10.667-2.133,14.933-4.267
			l83.2-80C312.533,311.467,314.666,304,313.6,297.6z"/>
	</g>
</g>
</svg>